
    <svg viewBox="0 0 34 30" fill="none" xmlns="http://www.w3.org/2000/svg" >
    <mask id="path-1-inside-1_2025_9287" fill="white">
    <path fill-rule="evenodd" clip-rule="evenodd" d="M17 30C26.3888 30 34 23.2843 34 15C34 14.9633 33.9998 14.9266 33.9995 14.8899L34 14.8897H33.9995C33.9324 6.6562 26.3471 0 17 0C7.65286 0 0.0676468 6.6562 0.000449947 14.8897H0V15V29.7794L6.62014 26.8802C9.49156 28.8363 13.0918 30 17 30Z"/>
    </mask>
    <path d="M33.9995 14.8899L32.7995 12.1404L30.9836 12.9329L30.9996 14.9142L33.9995 14.8899ZM34 14.8897L35.2 17.6392L34 11.8897V14.8897ZM33.9995 14.8897L30.9996 14.9142L31.0239 17.8897H33.9995V14.8897ZM0.000449947 14.8897V17.8897H2.97607L3.00035 14.9142L0.000449947 14.8897ZM0 14.8897V11.8897H-3V14.8897H0ZM0 29.7794H-3V34.3683L1.20345 32.5274L0 29.7794ZM6.62014 26.8802L8.30915 24.4009L6.93725 23.4663L5.41668 24.1322L6.62014 26.8802ZM31 15C31 21.2856 25.0959 27 17 27V33C27.6818 33 37 25.283 37 15H31ZM30.9996 14.9142C30.9999 14.943 31 14.9716 31 15H37C37 14.955 36.9998 14.9101 36.9995 14.8656L30.9996 14.9142ZM32.8 12.1402L32.7995 12.1404L35.1996 17.6394L35.2 17.6392L32.8 12.1402ZM33.9995 17.8897H34V11.8897H33.9995V17.8897ZM17 3C25.058 3 30.9486 8.6645 30.9996 14.9142L36.9995 14.8652C36.9161 4.6479 27.6362 -3 17 -3V3ZM3.00035 14.9142C3.05136 8.6645 8.94197 3 17 3V-3C6.36376 -3 -2.91606 4.6479 -2.99945 14.8652L3.00035 14.9142ZM0 17.8897H0.000449947V11.8897H0V17.8897ZM3 15V14.8897H-3V15H3ZM3 29.7794V15H-3V29.7794H3ZM5.41668 24.1322L-1.20345 27.0314L1.20345 32.5274L7.82359 29.6283L5.41668 24.1322ZM17 27C13.6872 27 10.6768 26.0138 8.30915 24.4009L4.93113 29.3596C8.30634 31.6589 12.4964 33 17 33V27Z" fill="#0F56B3" mask="url(#path-1-inside-1_2025_9287)"/>
    <circle cx="17" cy="15.5" r="2.5" fill="#0F56B3"/>
    <circle cx="24.5" cy="15.5" r="2.5" fill="#0F56B3"/>
    <circle cx="9.5" cy="15.5" r="2.5" fill="#0F56B3"/>
    </svg>
    
